<svg width="16" height="16" viewBox="0 0 16 16" fill="none" xmlns="http://www.w3.org/2000/svg">
<path d="M2 6.66675V12.6667C2 13.0204 2.14048 13.3595 2.39052 13.6096C2.64057 13.8596 2.97971 14.0001 3.33333 14.0001H12.6667C13.0203 14.0001 13.3594 13.8596 13.6095 13.6096C13.8595 13.3595 14 13.0204 14 12.6667V6.66675" stroke="white"/>
<path d="M9.88861 14.0001V10.0001C9.88861 9.64646 9.74813 9.30732 9.49809 9.05727C9.24804 8.80722 8.9089 8.66675 8.55528 8.66675H7.22194C6.86832 8.66675 6.52918 8.80722 6.27913 9.05727C6.02909 9.30732 5.88861 9.64646 5.88861 10.0001V14.0001" stroke="white" stroke-miterlimit="16"/>
<path d="M14.5453 6.24267L13.416 2.29C13.3921 2.20643 13.3416 2.13292 13.2722 2.0806C13.2028 2.02827 13.1182 1.99998 13.0313 2H10.3333L10.65 5.80267C10.6549 5.86378 10.6742 5.92286 10.7065 5.97502C10.7387 6.02719 10.7828 6.07094 10.8353 6.10267C11.0953 6.258 11.6033 6.54467 12 6.66667C12.6773 6.87533 13.6666 6.8 14.2306 6.73067C14.2855 6.72358 14.3381 6.70461 14.3848 6.67509C14.4316 6.64556 14.4713 6.6062 14.5013 6.55973C14.5313 6.51327 14.5507 6.46082 14.5583 6.40606C14.5659 6.3513 14.5615 6.29554 14.5453 6.24267Z" stroke="white"/>
<path d="M9.33332 6.66667C9.71198 6.55 10.192 6.284 10.46 6.12533C10.5223 6.08803 10.5729 6.03391 10.6059 5.96918C10.639 5.90444 10.6531 5.83172 10.6466 5.75933L10.3333 2H5.66665L5.35331 5.75933C5.34676 5.83182 5.36081 5.90469 5.39383 5.96956C5.42685 6.03442 5.47751 6.08865 5.53998 6.126C5.80798 6.284 6.28798 6.55 6.66665 6.66667C7.66198 6.97333 8.33798 6.97333 9.33332 6.66667Z" stroke="white"/>
<path d="M2.58397 2.29L1.45464 6.24333C1.4387 6.29612 1.43444 6.35174 1.44215 6.40634C1.44987 6.46094 1.46937 6.51321 1.49931 6.55951C1.52925 6.60582 1.56891 6.64505 1.61553 6.67449C1.66216 6.70393 1.71463 6.72287 1.76931 6.73C2.33264 6.8 3.32264 6.87467 3.99997 6.66667C4.39664 6.54467 4.90531 6.258 5.16464 6.10333C5.21719 6.07154 5.26141 6.02768 5.29364 5.9754C5.32587 5.92311 5.34518 5.8639 5.34997 5.80267L5.66664 2H2.96864C2.88172 1.99998 2.79716 2.02827 2.72776 2.0806C2.65835 2.13292 2.60788 2.20643 2.58397 2.29Z" stroke="white"/>
</svg>
